<svg xmlns="http://www.w3.org/2000/svg" height="24" width="24" viewBox="0 0 960 960" fill="none"><path d="M160 880v-440H80v-240h208q-5-9-6.5-19t-1.5-21q0-50 35-85t85-35q23 0 43 8.5t37 23.5q17-16 37-24t43-8q50 0 85 35t35 85q0 11-2 20.5t-6 19.5h208v240h-80v440H160Zm371.5-748.5Q520 143 520 160t11.5 28.5Q543 200 560 200t28.5-11.5Q600 177 600 160t-11.5-28.5Q577 120 560 120t-28.5 11.5ZM360 160q0 17 11.5 28.5T400 200q17 0 28.5-11.5T440 160q0-17-11.5-28.5T400 120q-17 0-28.5 11.5T360 160ZM160 280v80h280v-80H160Zm280 520v-360H240v360h200Zm80 0h200v-360H520v360Zm280-440v-80H520v80h280Z" fill="#101828"/></svg>