<svg xmlns="http://www.w3.org/2000/svg" width="26" height="33" fill="none"><path fill="#fff" d="M22.097 17.364V4.007h-9.099v23.729q2.418-1.315 4.326-2.86 4.773-3.84 4.773-7.512m3.9-16.028v16.028a9.8 9.8 0 0 1-.68 3.558q-.681 1.765-1.686 3.13a19 19 0 0 1-2.397 2.661q-1.39 1.295-2.57 2.15-1.178.856-2.457 1.617-1.28.762-1.817 1.033-.54.271-.864.418a1.14 1.14 0 0 1-.528.125q-.284 0-.528-.125a23 23 0 0 1-.863-.418q-.539-.27-1.818-1.033a32 32 0 0 1-2.457-1.617q-1.178-.855-2.57-2.15a19 19 0 0 1-2.396-2.66Q1.361 22.685.68 20.922A9.8 9.8 0 0 1 0 17.364V1.336q0-.543.386-.94T1.3 0h23.397q.528 0 .914.397.386.396.386.939"/></svg>